<?xml version="1.0" standalone="no"?>
<!DOCTYPE svg PUBLIC "-//W3C//DTD SVG 20010904//EN"
 "http://www.w3.org/TR/2001/REC-SVG-20010904/DTD/svg10.dtd">
<svg version="1.0" xmlns="http://www.w3.org/2000/svg"
 width="1024.000000pt" height="1024.000000pt" viewBox="0 0 1024.000000 1024.000000"
 preserveAspectRatio="xMidYMid meet">

<g transform="translate(0.000000,1024.000000) scale(0.100000,-0.100000)"
fill="#000000" stroke="none">
<path d="M5045 8409 c-86 -56 -359 -190 -508 -249 -314 -124 -676 -227 -1031
-295 -275 -52 -635 -94 -803 -95 l-63 0 0 -779 c0 -678 5 -912 25 -1071 2 -19
7 -60 10 -90 42 -367 183 -781 361 -1060 201 -314 505 -621 815 -823 l86 -56
62 11 c33 6 61 14 61 17 0 3 -21 17 -47 31 -64 34 -248 166 -368 265 -400 329
-688 783 -810 1276 -84 342 -93 468 -94 1400 l-1 786 97 7 c103 7 120 9 273
26 450 50 886 152 1315 307 240 87 569 237 668 305 27 19 27 19 57 -2 42 -30
395 -199 510 -245 478 -188 1003 -316 1540 -374 168 -19 184 -20 243 -20 l57
-1 0 -727 c0 -634 -7 -918 -25 -1053 -21 -154 -28 -200 -51 -314 -63 -312
-192 -614 -379 -881 -194 -276 -414 -486 -737 -699 l-139 -91 38 -12 c71 -22
89 -17 196 56 502 342 853 785 1027 1297 43 127 109 398 124 509 3 22 8 57 11
78 20 145 25 355 25 1095 l0 832 -62 0 c-86 0 -353 22 -428 35 -14 2 -45 7
-70 10 -98 12 -293 47 -447 80 -499 107 -963 275 -1336 483 -70 40 -131 72
-135 71 -4 0 -34 -18 -67 -40z"/>
<path d="M5085 8254 c-30 -23 -257 -136 -377 -187 -524 -224 -1184 -386 -1751
-429 l-157 -12 1 -796 c1 -855 4 -920 55 -1174 28 -140 78 -321 119 -430 41
-109 139 -300 211 -410 209 -319 438 -542 818 -795 l139 -93 240 32 c133 18
250 35 260 39 29 11 -150 40 -316 52 -78 5 -148 11 -154 14 -10 3 -13 90 -13
385 l0 380 26 11 c15 5 27 8 28 7 0 -2 -1 -169 -4 -373 -3 -203 -3 -373 0
-377 3 -3 180 -9 394 -12 320 -4 390 -8 400 -19 15 -20 109 -40 150 -33 19 4
46 16 60 27 26 20 41 21 422 27 l394 5 -2 371 c-2 220 -7 371 -12 371 -23 0
-29 -79 -31 -370 l-3 -310 -123 1 c-68 1 -227 5 -352 9 -204 7 -227 9 -213 23
8 8 45 26 83 38 37 13 60 24 51 24 -24 0 -116 -36 -137 -53 -25 -22 -133 -78
-138 -73 -3 3 6 49 20 104 22 86 25 121 27 278 1 171 2 181 25 215 44 67 153
142 258 178 50 18 82 20 282 18 209 -2 225 -3 225 -20 0 -11 -16 -25 -42 -37
-24 -11 -32 -17 -18 -13 36 11 113 5 127 -10 19 -18 29 -766 11 -772 -22 -8
-366 -37 -486 -42 -66 -2 -110 -8 -107 -14 4 -5 26 -9 51 -9 45 0 140 -13 394
-52 74 -12 142 -21 151 -20 17 1 175 97 279 171 197 139 425 349 559 516 144
179 287 428 357 623 71 195 134 461 149 632 4 41 10 84 13 95 3 11 7 389 9
841 l4 821 -118 7 c-391 23 -942 134 -1385 280 -247 82 -407 147 -640 263
-103 51 -189 93 -190 93 -2 0 -12 -8 -23 -16z m45 -211 c0 -105 23 -303 35
-303 7 0 25 -3 41 -6 28 -5 30 -3 99 130 39 75 73 136 77 136 9 0 -21 -87 -59
-170 -45 -99 -48 -118 -21 -140 13 -11 27 -19 31 -20 5 0 29 18 55 39 128 108
213 171 203 153 -10 -19 -95 -104 -186 -185 -38 -34 -39 -37 -22 -54 17 -17
19 -17 69 1 29 10 82 37 118 59 102 63 232 134 260 142 14 4 -13 -16 -60 -45
-47 -29 -108 -71 -136 -94 -28 -23 -86 -59 -128 -81 -53 -27 -76 -44 -73 -54
5 -26 62 -17 357 54 280 67 453 106 474 104 22 -1 -42 -21 -234 -74 -424 -116
-570 -159 -570 -168 0 -5 52 -6 123 -3 67 3 291 7 497 10 341 4 390 -1 140
-17 -333 -20 -738 -50 -750 -54 -27 -10 37 -22 204 -38 89 -9 202 -22 251 -29
50 -7 178 -25 285 -40 225 -31 244 -35 236 -43 -4 -5 -227 13 -276 22 -8 2
-49 6 -90 9 -41 4 -86 9 -100 11 -33 6 -262 22 -415 30 -79 5 -117 3 -110 -3
11 -11 204 -67 350 -102 95 -23 369 -110 363 -115 -2 -2 -35 4 -74 15 -74 19
-375 85 -552 121 -127 26 -155 14 -60 -24 83 -34 178 -77 178 -82 0 -7 -61 5
-135 27 -38 11 -77 21 -85 21 -8 0 -21 4 -28 10 -9 7 -19 4 -33 -9 l-21 -19
23 -17 c22 -18 22 -18 -22 -18 -24 1 -86 -2 -136 -6 -51 -3 -163 -3 -249 1
l-155 7 22 24 c37 39 12 49 -52 21 -45 -20 -193 -57 -225 -57 -18 0 22 20 111
55 90 35 145 68 134 80 -9 9 -309 -43 -419 -72 -52 -14 -122 -31 -155 -39 -33
-7 -76 -18 -95 -24 -78 -23 -59 -7 30 25 126 46 261 85 453 131 151 36 193 54
125 54 -81 0 -478 -32 -623 -49 -187 -23 -373 -36 -364 -27 4 4 64 13 135 22
71 8 212 28 314 44 193 30 235 36 335 45 113 10 215 27 210 35 -5 8 -93 15
-380 30 -99 5 -223 14 -275 20 -52 6 -149 15 -215 19 -116 9 497 5 773 -4 64
-2 112 0 112 5 0 5 -24 16 -52 24 -29 8 -102 28 -163 44 -176 49 -446 123
-502 139 -29 8 -53 17 -53 20 0 9 70 -5 280 -53 248 -57 472 -104 498 -104 24
0 42 22 23 28 -8 3 -82 50 -165 105 -83 56 -173 114 -201 129 -27 15 -43 28
-35 28 17 0 42 -13 160 -80 41 -23 120 -67 174 -96 92 -50 100 -52 112 -36 7
9 14 20 14 24 0 3 -47 48 -104 98 -57 50 -112 103 -122 118 -18 27 -18 27 3
12 12 -8 73 -54 136 -102 63 -49 120 -88 126 -88 18 0 61 31 61 44 0 7 -27 68
-61 135 -33 68 -58 125 -56 127 4 4 81 -111 162 -240 7 -12 19 -14 46 -10 l36
6 11 127 c7 69 12 147 12 174 0 26 5 47 10 47 6 0 10 -21 10 -47z m820 -995
c1072 -27 950 -38 -435 -41 -1268 -2 -2059 2 -2095 12 -23 7 109 12 725 30
373 11 1358 11 1805 -1z m-2663 -239 l63 -11 0 -59 c0 -51 -3 -59 -19 -59 -12
0 -21 11 -27 33 -13 44 -63 69 -130 64 -98 -7 -153 -77 -154 -195 0 -133 83
-227 185 -208 46 9 57 26 53 87 -3 51 -9 60 -50 73 -11 3 -15 11 -12 21 5 13
23 15 108 13 87 -3 101 -5 104 -20 2 -13 -3 -18 -17 -18 -25 0 -34 -29 -29
-101 3 -49 1 -54 -24 -66 -78 -38 -232 -40 -311 -5 -181 82 -165 368 26 441
59 23 140 26 234 10z m1446 -57 c4 -49 3 -53 -17 -50 -13 2 -22 12 -24 25 -5
35 -26 44 -92 41 l-62 -3 -2 -74 c-3 -83 0 -87 69 -77 35 6 45 12 45 26 0 18
23 34 34 23 3 -4 6 -37 6 -75 0 -52 -3 -68 -14 -68 -8 0 -18 9 -21 20 -7 23
-38 33 -86 28 l-34 -3 -3 -60 c-2 -32 0 -70 3 -82 5 -23 9 -24 82 -21 75 3 77
4 92 35 9 19 24 33 34 33 17 0 18 -6 12 -52 -4 -29 -10 -56 -14 -61 -4 -4 -88
-6 -186 -5 -132 2 -179 6 -183 16 -2 7 5 12 16 12 39 0 43 20 40 206 -3 175
-4 179 -25 189 -13 5 -23 15 -23 22 0 9 43 13 173 15 94 2 173 1 174 -2 1 -3
3 -29 6 -58z m239 34 c13 -18 68 -88 123 -155 l100 -121 5 118 c3 64 3 123 1
130 -2 7 -14 15 -27 18 -13 3 -24 14 -24 23 0 14 11 16 80 13 82 -4 103 -17
58 -37 -23 -10 -23 -13 -26 -217 l-2 -208 -34 0 c-32 0 -43 11 -173 169 l-138
168 -3 -135 c-3 -141 2 -158 41 -164 12 -2 22 -10 22 -18 0 -12 -16 -15 -85
-15 -73 0 -85 2 -88 18 -2 12 3 17 17 17 35 0 41 31 41 204 l0 165 -30 16
c-56 29 -38 45 51 45 66 0 69 -1 91 -34z m738 -26 c0 -53 -2 -60 -20 -60 -14
0 -20 7 -20 23 0 37 -19 47 -87 47 l-63 0 0 -80 0 -81 58 3 c50 3 57 6 60 26
2 12 10 22 18 22 11 0 14 -17 14 -75 0 -57 -3 -75 -14 -75 -8 0 -17 11 -20 25
-6 23 -11 25 -62 25 l-55 0 3 -82 c3 -82 3 -83 31 -86 19 -2 27 -9 27 -23 0
-18 -8 -19 -110 -19 -102 0 -110 1 -110 19 0 13 8 21 23 23 22 3 22 5 25 190
l2 188 -25 6 c-14 3 -25 12 -25 20 0 11 33 14 163 17 89 1 168 4 175 5 8 1 12
-15 12 -58z m218 52 c46 -2 61 -28 20 -34 -23 -3 -23 -4 -23 -193 l0 -189 25
-6 c14 -3 25 -12 25 -20 0 -12 -21 -16 -107 -18 -102 -3 -108 -2 -108 17 0 13
8 21 23 23 22 3 22 4 22 193 0 189 0 190 -22 193 -14 2 -23 10 -23 20 0 17 40
21 168 14z m450 -56 c3 -49 1 -56 -15 -56 -13 0 -22 11 -28 33 -10 32 -10 32
-82 35 l-73 3 0 -81 0 -81 58 3 c50 3 57 6 60 26 2 13 10 22 20 22 15 0 17
-11 15 -72 -1 -58 -5 -74 -17 -76 -11 -2 -16 4 -16 21 0 29 -16 37 -76 37
l-45 0 3 -87 3 -88 54 -3 c78 -4 99 3 118 43 10 22 24 35 35 35 17 0 18 -5 13
-47 -4 -27 -8 -54 -10 -60 -7 -20 -361 -18 -368 1 -7 18 1 26 25 26 16 0 18
12 20 135 4 260 6 238 -24 253 -26 12 -34 23 -24 33 2 2 82 3 178 2 l173 -2 3
-55z m-2602 38 c48 -23 64 -50 64 -108 0 -44 -4 -53 -40 -88 l-41 -38 42 -62
c51 -77 88 -118 107 -118 7 0 12 -8 10 -17 -3 -15 -13 -18 -68 -15 -39 2 -71
9 -80 18 -8 8 -40 51 -70 97 -30 45 -63 83 -73 85 -16 3 -18 -4 -15 -80 3 -83
3 -83 31 -86 20 -3 27 -8 25 -20 -3 -14 -19 -17 -111 -20 -101 -3 -107 -2
-107 17 0 13 8 21 23 23 22 3 22 3 22 198 0 195 0 195 -22 198 -13 2 -23 10
-23 18 0 22 279 20 326 -2z m524 -39 c0 -46 -3 -55 -18 -55 -12 0 -21 11 -27
33 -10 32 -10 32 -82 35 l-73 3 0 -81 0 -81 58 3 c50 3 57 6 60 26 2 14 10 22
23 22 17 0 19 -8 19 -75 0 -68 -2 -75 -20 -75 -14 0 -20 7 -20 24 0 28 -16 36
-76 36 l-44 0 0 -90 0 -90 58 0 c80 0 98 7 121 46 11 19 28 34 37 34 13 0 15
-8 9 -52 -4 -29 -10 -56 -14 -60 -3 -3 -87 -8 -186 -10 -165 -3 -180 -2 -183
15 -2 11 3 17 17 17 11 0 22 3 24 8 3 4 7 90 8 192 4 184 4 185 -18 195 -13 5
-23 15 -23 22 0 10 41 13 175 13 l175 0 0 -55z m2360 41 c0 -8 -11 -17 -25
-20 l-25 -6 0 -190 0 -190 69 0 69 0 19 40 c11 25 25 40 37 40 17 0 18 -5 12
-62 -4 -35 -9 -65 -11 -67 -2 -2 -83 0 -179 4 -135 6 -176 11 -176 21 0 7 10
14 23 16 22 3 22 4 25 195 l2 193 -25 6 c-14 3 -25 12 -25 20 0 11 22 14 105
14 83 0 105 -3 105 -14z m555 -10 c87 -41 125 -102 125 -204 0 -69 -18 -117
-60 -166 -51 -57 -102 -71 -275 -71 -135 0 -150 2 -153 18 -2 12 3 17 17 17
11 0 23 5 26 10 3 6 9 91 12 191 l5 180 -31 12 c-17 6 -31 17 -31 24 0 10 36
13 158 13 144 0 161 -2 207 -24z m-2547 -596 c19 0 22 -5 22 -35 0 -38 -14
-47 -23 -15 -6 24 -51 36 -83 21 -50 -23 -55 -111 -9 -157 28 -28 76 -32 100
-8 20 21 30 12 16 -15 -14 -25 -71 -37 -120 -25 -67 17 -103 113 -67 182 20
39 77 65 121 56 11 -2 30 -4 43 -4z m607 -4 c41 -17 65 -60 65 -115 0 -84
-100 -142 -179 -104 -91 45 -85 187 10 220 45 16 63 16 104 -1z m356 -7 c29
-15 59 -69 59 -105 0 -72 -80 -133 -159 -120 -57 9 -101 67 -101 135 0 32 40
87 74 102 25 10 98 4 127 -12z m-1243 -21 c4 -34 -4 -35 -27 -6 -14 16 -24 19
-44 14 -51 -12 -22 -76 35 -76 7 0 22 -10 35 -22 51 -48 10 -118 -69 -118 -52
0 -78 15 -78 45 0 30 15 32 30 4 9 -16 19 -19 48 -17 32 3 37 6 37 28 0 20 -8
27 -44 41 -71 26 -92 78 -50 120 16 16 30 19 72 17 48 -3 52 -5 55 -30z m482
22 c0 -5 -4 -10 -10 -10 -5 0 -10 -16 -10 -35 0 -31 3 -35 34 -41 19 -3 39 -3
45 1 18 10 13 66 -6 81 -16 12 -11 13 35 14 48 0 66 -10 42 -25 -5 -3 -10 -45
-10 -92 0 -69 3 -88 17 -98 15 -11 9 -13 -36 -16 -54 -4 -76 7 -47 23 10 6 16
22 16 48 l0 40 -50 0 -50 0 0 -40 c0 -27 5 -43 15 -46 8 -4 15 -11 15 -18 0
-7 -17 -10 -50 -8 -27 2 -50 8 -50 13 0 5 5 9 10 9 6 0 10 37 10 91 0 76 -3
94 -17 105 -16 12 -10 13 40 14 31 0 57 -4 57 -10z m1010 0 c0 -5 -7 -10 -15
-10 -12 0 -15 -17 -15 -89 l0 -89 37 -4 c26 -3 40 1 52 14 8 10 18 18 21 18 7
0 5 -59 -3 -66 -9 -9 -187 7 -187 17 0 5 7 9 15 9 12 0 15 17 15 95 0 78 -3
95 -15 95 -8 0 -15 5 -15 10 0 6 25 10 55 10 30 0 55 -4 55 -10z m-1806 -86
c19 -7 21 -34 4 -35 -7 0 -239 0 -515 0 -428 1 -571 7 -543 23 3 1 237 5 520
8 283 3 516 6 517 8 1 1 8 -1 17 -4z m3105 -10 c101 -17 -39 -24 -516 -24
-492 0 -523 1 -523 18 0 16 30 17 502 15 277 -2 518 -5 537 -9z m-2049 -245
c0 -27 33 -89 85 -160 73 -100 82 -166 29 -229 -20 -23 -34 -30 -60 -30 -32 0
-34 2 -29 28 l5 27 -11 -27 c-16 -41 -43 -36 -56 10 l-11 37 5 -37 5 -38 -40
0 c-32 0 -45 6 -65 30 -14 16 -28 43 -32 60 -10 45 19 118 69 175 50 58 71 96
80 148 7 38 26 43 26 6z m-217 -134 c17 -26 14 -24 -22 10 -23 22 -47 49 -53
60 -15 27 47 -30 75 -70z m478 68 c-13 -24 -91 -99 -91 -88 0 8 90 105 97 105
2 0 -1 -8 -6 -17z m-573 -93 c39 -33 72 -65 72 -71 0 -6 -30 15 -67 47 -95 81
-98 84 -88 84 6 0 43 -27 83 -60z m647 24 c-22 -20 -61 -56 -87 -80 -27 -24
-48 -39 -48 -33 0 15 148 148 165 148 6 0 -8 -16 -30 -35z m-668 -207 c93 -12
124 -20 112 -31 -6 -5 -310 32 -317 39 -9 9 99 5 205 -8z m828 4 c-11 -5 -61
-14 -110 -20 -162 -19 -178 -20 -167 -9 11 11 178 35 252 36 33 1 39 -2 25 -7z
m-812 -68 c-7 -2 -19 -2 -25 0 -7 3 -2 5 12 5 14 0 19 -2 13 -5z m610 0 c-7
-2 -19 -2 -25 0 -7 3 -2 5 12 5 14 0 19 -2 13 -5z m-723 -13 c-79 -11 -141
-11 -115 0 11 5 54 8 95 8 l75 -1 -55 -7z m-1369 -47 c42 -56 56 -90 65 -158
4 -27 10 -59 15 -70 7 -17 8 -16 8 9 1 33 73 112 92 101 20 -13 2 -84 -34
-139 l-34 -52 20 -54 21 -55 6 43 c6 41 54 107 70 97 4 -3 13 -25 20 -50 11
-39 10 -51 -4 -89 -9 -25 -23 -50 -31 -56 -12 -10 -11 -19 10 -60 27 -53 48
-74 44 -44 -6 37 12 91 36 114 l24 23 11 -29 c22 -57 24 -122 5 -164 -17 -38
-17 -40 3 -73 12 -18 30 -41 40 -50 18 -16 19 -15 15 35 -3 41 1 61 16 86 12
17 25 32 30 32 4 0 19 -31 31 -70 20 -62 21 -74 10 -120 -12 -49 -11 -53 11
-77 13 -13 32 -29 41 -34 15 -8 16 -5 7 23 -12 43 -11 80 1 114 10 26 11 26
32 8 34 -31 58 -94 58 -155 0 -55 1 -56 38 -73 21 -10 51 -28 67 -40 l29 -23
-27 -5 c-17 -3 -47 4 -80 19 -45 21 -57 23 -88 14 -60 -18 -116 -13 -171 15
l-51 26 34 20 c50 31 92 40 125 28 16 -6 26 -9 24 -7 -72 67 -115 95 -131 87
-10 -6 -39 -10 -66 -10 -38 0 -61 8 -106 36 -31 19 -57 39 -57 43 0 11 71 31
109 31 18 0 42 -5 54 -12 14 -7 8 6 -21 39 -40 48 -45 51 -80 46 -47 -6 -98
14 -157 63 -67 55 -61 66 34 62 l79 -3 -24 46 -23 46 -48 -4 c-41 -4 -53 0
-88 25 -22 17 -48 44 -58 61 l-18 31 58 0 c32 0 70 -7 86 -14 32 -17 32 -17
10 29 -11 23 -26 37 -43 41 -69 14 -107 28 -127 47 -13 11 -23 24 -23 29 0 11
58 10 99 -2 45 -13 50 -6 18 24 -46 42 -67 98 -67 176 0 38 4 70 8 70 4 0 24
-21 43 -47z m3629 -33 c0 -78 -19 -123 -78 -179 -26 -25 -36 -36 -24 -26 18
15 39 20 83 20 32 0 59 -4 60 -10 3 -17 -86 -66 -130 -72 -36 -5 -45 -11 -62
-44 -10 -21 -19 -40 -19 -43 0 -2 17 5 37 15 36 18 133 27 133 12 -1 -14 -54
-69 -84 -89 -17 -10 -52 -21 -80 -24 -46 -5 -52 -8 -73 -45 -12 -22 -21 -41
-19 -42 2 -2 21 3 43 11 43 15 123 11 123 -7 0 -16 -69 -76 -114 -99 -22 -12
-63 -22 -90 -23 -44 -2 -53 -6 -82 -41 -18 -21 -31 -40 -30 -42 2 -1 16 2 31
8 16 6 54 8 93 4 l66 -7 -48 -43 c-59 -54 -111 -70 -174 -54 -43 11 -45 10
-98 -31 -30 -23 -54 -43 -54 -45 0 -2 18 -1 40 2 46 7 130 -19 130 -41 0 -19
-92 -55 -140 -55 -23 0 -54 7 -69 16 -27 16 -31 15 -105 -21 -56 -28 -80 -35
-88 -27 -8 8 6 22 53 51 35 23 69 42 74 44 6 2 5 10 -2 19 -18 21 5 102 47
168 32 50 34 51 42 29 11 -30 13 -85 3 -130 l-7 -34 40 38 40 39 -16 48 c-15
47 -15 48 16 114 17 36 35 66 40 66 22 0 45 -111 31 -147 -5 -13 -7 -23 -5
-23 3 0 25 24 51 54 46 54 46 55 27 74 -30 30 -37 92 -17 152 9 27 22 50 28
50 26 -1 51 -54 52 -106 0 -29 2 -51 5 -49 3 2 18 28 34 57 l29 55 -21 21
c-12 12 -24 33 -28 48 -7 28 1 132 11 143 11 10 74 -71 81 -103 6 -29 7 -29
28 25 21 50 21 55 6 61 -20 8 -56 62 -65 98 -3 14 -1 38 4 53 10 27 12 27 35
11 14 -8 33 -33 43 -55 10 -21 21 -39 25 -39 3 0 9 24 13 53 8 56 32 112 72
165 38 51 53 43 53 -28z m-1592 22 c2 -13 -3 -33 -11 -45 -8 -12 -17 -44 -21
-72 -10 -63 -41 -137 -70 -164 -12 -11 -40 -30 -62 -41 -39 -21 -39 -21 -6
-15 29 6 32 4 32 -18 0 -24 -21 -49 -50 -60 -8 -3 -3 -6 13 -6 34 -1 35 -18 1
-31 -55 -21 -171 -5 -161 23 2 6 8 11 13 11 5 -1 25 -4 44 -7 31 -5 32 -5 10
4 -75 32 -90 43 -90 67 0 21 3 23 28 18 l27 -6 -30 16 c-78 43 -106 90 -139
237 l-6 27 132 1 c73 1 174 4 223 9 66 5 28 7 -140 6 l-230 -1 -3 38 -3 37
248 -2 248 -3 3 -23z m150 -18 c48 -10 79 -21 74 -26 -9 -9 -150 19 -166 34
-14 11 -3 10 92 -8z m-783 -3 c-11 -4 -33 -11 -50 -15 l-30 -6 25 15 c14 8 36
14 50 14 23 0 23 -1 5 -8z m124 -94 c-2 -2 -34 -29 -70 -60 -64 -55 -95 -74
-68 -40 25 29 131 114 137 109 3 -4 3 -7 1 -9z m593 -47 c35 -32 58 -59 53
-60 -6 0 -40 27 -75 60 -36 32 -59 59 -53 60 7 0 41 -27 75 -60z m-1062 -284
c47 1 126 3 175 4 109 4 175 -10 275 -60 88 -44 144 -87 180 -137 24 -34 25
-43 31 -217 3 -99 13 -223 22 -275 9 -52 14 -98 11 -103 -3 -4 -15 -3 -27 4
-12 7 -28 11 -35 10 -7 -2 -11 2 -10 9 3 11 -76 59 -97 58 -5 0 6 -8 26 -19
19 -10 41 -26 48 -34 12 -14 9 -16 -18 -16 -18 0 -30 4 -26 9 15 25 -277 26
-475 1 -52 -6 -123 -9 -158 -5 l-62 7 0 363 c0 201 -2 376 -6 390 -6 24 -5 25
27 17 19 -4 72 -7 119 -6z m797 -85 c-3 -38 -12 -66 -23 -78 -11 -11 -24 -28
-31 -39 -11 -18 -13 -17 -44 20 -27 32 -33 49 -37 97 l-4 59 73 0 72 0 -6 -59z
m-55 -199 l23 3 3 -145 c2 -108 -3 -173 -17 -255 -10 -60 -21 -103 -24 -95
-35 108 -55 527 -23 500 8 -6 25 -10 38 -8z m-207 -492 c-8 -13 -355 -13 -375
0 -10 6 51 10 183 10 130 0 196 -3 192 -10z m785 1 c14 -5 -82 -8 -212 -7
-131 1 -238 4 -238 9 0 9 417 7 450 -2z"/>
<path d="M3610 6680 l0 -90 38 0 c56 0 82 28 82 90 0 41 -4 52 -26 69 -15 12
-41 21 -60 21 l-34 0 0 -90z"/>
<path d="M7017 6763 c-4 -3 -7 -89 -7 -189 l0 -183 33 -6 c53 -10 113 11 142
49 51 67 53 209 5 276 -31 43 -148 79 -173 53z"/>
<path d="M5184 6162 c-53 -35 -38 -163 21 -178 75 -19 116 105 55 166 -20 20
-56 26 -76 12z"/>
<path d="M5509 6154 c-7 -8 -14 -39 -17 -69 -4 -47 -1 -57 21 -79 34 -34 70
-33 96 0 35 44 20 141 -24 158 -29 11 -62 6 -76 -10z"/>
<path d="M5093 5013 c15 -2 37 -2 50 0 12 2 0 4 -28 4 -27 0 -38 -2 -22 -4z"/>
<path d="M5138 4933 c7 -3 16 -2 19 1 4 3 -2 6 -13 5 -11 0 -14 -3 -6 -6z"/>
<path d="M4320 4385 c-3 -55 -9 -109 -13 -120 -5 -11 -1 -8 8 8 12 21 15 49
13 120 l-3 92 -5 -100z"/>
<path d="M4580 4253 c0 -5 24 -7 52 -5 95 5 104 9 26 11 -43 0 -78 -2 -78 -6z"/>
<path d="M4538 4243 c6 -2 18 -2 25 0 6 3 1 5 -13 5 -14 0 -19 -2 -12 -5z"/>
<path d="M4778 4243 c7 -3 16 -2 19 1 4 3 -2 6 -13 5 -11 0 -14 -3 -6 -6z"/>
<path d="M4815 4241 c13 -11 77 -32 82 -27 2 2 -17 11 -44 20 -26 9 -43 12
-38 7z"/>
<path d="M4286 4225 c-9 -26 -7 -32 5 -12 6 10 9 21 6 23 -2 3 -7 -2 -11 -11z"/>
<path d="M4498 4233 c7 -3 16 -2 19 1 4 3 -2 6 -13 5 -11 0 -14 -3 -6 -6z"/>
<path d="M4345 4173 c-36 -9 -36 -19 0 -15 19 2 35 8 35 13 0 9 -3 10 -35 2z"/>
<path d="M7851 6600 c-7 -19 -15 -76 -18 -125 -5 -80 -3 -96 17 -135 12 -25
41 -64 63 -88 39 -40 43 -49 59 -140 9 -53 16 -98 14 -100 -2 -1 -15 17 -30
41 -14 25 -39 56 -56 70 -34 29 -128 67 -166 67 -22 0 -24 -3 -19 -22 14 -46
57 -133 82 -166 33 -44 104 -89 154 -97 l39 -7 0 -132 c0 -73 -3 -136 -7 -139
-3 -4 -13 15 -22 41 -30 88 -102 156 -192 182 l-32 9 6 -58 c14 -130 70 -221
163 -267 l56 -27 -7 -61 c-6 -59 -29 -169 -43 -211 -4 -14 -8 -2 -13 37 -9 78
-47 139 -122 195 -61 44 -62 45 -68 21 -15 -52 -9 -176 10 -221 24 -55 69
-107 114 -132 l35 -18 -19 -56 c-11 -31 -36 -96 -57 -146 l-37 -90 -5 85 c-6
97 -29 146 -98 213 l-40 39 -22 -67 c-45 -134 -19 -270 65 -344 19 -17 35 -32
35 -35 0 -9 -66 -112 -119 -186 -30 -42 -51 -64 -47 -50 16 58 17 136 2 183
-15 49 -75 157 -87 157 -4 0 -24 -35 -45 -77 -62 -125 -59 -252 8 -344 l29
-40 -40 -47 c-22 -26 -70 -76 -106 -112 -59 -57 -65 -61 -49 -30 15 27 19 56
19 125 -1 77 -5 99 -28 149 -16 35 -31 56 -36 50 -5 -5 -29 -38 -55 -72 -78
-109 -96 -218 -52 -324 l24 -58 -42 -38 c-36 -33 -146 -115 -184 -136 -6 -4
-1 13 12 39 39 72 50 145 37 234 -6 41 -15 79 -19 83 -13 13 -150 -136 -174
-188 -23 -52 -29 -140 -15 -211 l9 -42 -51 -26 c-41 -20 -51 -30 -51 -50 0
-14 2 -25 4 -25 3 0 31 11 63 25 l59 26 42 -41 c105 -99 224 -113 390 -44 34
15 62 30 62 35 0 5 -28 29 -61 54 -82 60 -150 79 -254 72 l-80 -6 45 22 c46
23 175 115 222 159 l26 25 24 -22 c36 -34 101 -55 174 -55 78 0 183 40 252 94
l43 35 -43 22 c-100 51 -197 61 -300 29 -38 -11 -56 -14 -46 -6 50 37 177 167
209 213 l16 23 44 -22 c32 -16 62 -21 111 -21 89 0 181 44 257 121 l53 55 -33
15 c-23 10 -67 16 -134 16 -94 1 -103 -1 -158 -31 l-59 -32 36 42 c20 23 62
84 93 135 48 77 61 92 78 87 137 -37 255 17 347 159 21 32 38 63 38 69 0 5
-41 8 -102 5 -115 -4 -149 -17 -210 -76 -43 -41 -47 -38 -19 10 17 28 76 173
95 231 4 14 17 17 66 17 127 0 219 81 276 243 l14 40 -69 -6 c-82 -7 -154 -40
-199 -92 -18 -20 -32 -40 -32 -45 0 -6 -4 -10 -9 -10 -5 0 -3 19 4 43 7 23 20
86 30 140 l17 97 35 0 c50 0 126 43 162 92 38 51 66 125 76 195 l7 53 -54 -19
c-105 -36 -157 -77 -198 -156 l-21 -40 5 40 c3 22 6 83 6 136 l0 97 28 5 c73
15 144 94 168 186 14 58 15 143 1 157 -3 3 -27 -6 -55 -20 -61 -31 -119 -96
-133 -151 -21 -77 -28 -84 -29 -30 -1 28 -7 70 -14 95 -10 39 -9 53 7 100 35
103 8 199 -86 305 l-54 59 -12 -34z"/>
<path d="M2314 6568 c-89 -100 -114 -197 -78 -304 13 -39 14 -57 5 -102 -6
-31 -11 -73 -11 -94 0 -24 -4 -37 -10 -33 -5 3 -10 16 -10 28 0 12 -13 47 -28
77 -21 41 -41 64 -82 92 -30 20 -65 39 -78 43 -23 7 -23 6 -21 -67 4 -138 69
-245 166 -271 l43 -11 0 -107 c0 -58 3 -122 6 -140 5 -32 4 -32 -24 16 -41 69
-98 118 -166 144 -78 29 -79 29 -71 -26 16 -108 77 -218 142 -256 18 -10 54
-22 80 -25 l48 -7 26 -132 c15 -72 30 -137 34 -145 4 -7 -15 12 -43 43 -59 65
-126 99 -215 107 -59 5 -59 5 -52 -19 31 -104 108 -208 180 -240 25 -12 64
-19 102 -19 l61 0 18 -47 c9 -27 32 -84 51 -128 19 -44 37 -87 41 -95 3 -8 -9
-2 -27 13 -67 56 -109 71 -213 75 -59 3 -98 0 -98 -5 0 -18 77 -127 111 -160
60 -55 116 -78 189 -76 36 0 73 3 83 5 14 2 33 -20 79 -92 33 -52 73 -109 89
-125 16 -17 29 -33 29 -36 0 -3 -28 8 -62 25 -56 28 -71 31 -153 30 -59 0
-102 -6 -124 -16 l-33 -15 57 -58 c109 -108 252 -149 351 -99 l42 20 118 -123
c66 -68 119 -123 119 -123 -1 0 -28 9 -60 21 -86 30 -178 23 -264 -20 l-64
-33 29 -24 c16 -13 63 -41 103 -61 69 -35 82 -38 160 -38 78 0 92 3 144 32
l58 32 86 -70 c47 -38 107 -81 134 -95 27 -13 49 -26 49 -28 0 -2 -28 -1 -63
1 -73 6 -173 -16 -221 -49 -39 -27 -86 -70 -86 -79 0 -11 113 -57 171 -69 107
-21 196 5 277 83 l42 41 55 -27 c31 -15 58 -27 60 -27 3 0 5 12 5 28 0 22 -9
32 -50 55 -47 26 -49 29 -39 55 6 15 12 56 12 92 1 96 -34 166 -126 253 l-72
68 -12 -38 c-35 -118 -24 -224 33 -298 18 -25 32 -45 29 -45 -10 0 -153 105
-200 149 l-50 45 22 45 c33 64 32 176 -1 248 -24 52 -95 153 -107 153 -3 0
-20 -31 -38 -68 -43 -94 -43 -167 -1 -247 16 -31 26 -55 21 -53 -16 6 -211
220 -211 232 0 7 11 28 25 46 48 66 66 164 44 245 -14 53 -70 175 -80 175 -12
0 -64 -80 -83 -130 -22 -55 -23 -141 -3 -197 8 -24 10 -40 6 -37 -12 7 -117
164 -149 221 l-23 42 46 49 c48 52 77 124 77 192 0 38 -36 180 -49 193 -12 12
-100 -88 -123 -140 -16 -37 -20 -60 -16 -120 3 -40 4 -73 3 -73 -2 0 -29 66
-61 147 -55 138 -57 147 -40 157 103 60 147 129 154 241 2 40 2 90 -2 109 l-7
36 -40 -22 c-22 -13 -60 -45 -85 -71 -45 -50 -64 -96 -64 -157 0 -56 -15 -22
-38 85 -34 160 -34 156 19 181 88 42 147 126 168 239 17 90 16 97 -16 89 -84
-20 -173 -101 -194 -176 -23 -80 -29 -63 -29 80 0 131 1 142 18 142 32 0 140
60 168 93 30 36 68 114 79 166 l7 34 -46 -6 c-87 -12 -173 -77 -205 -155 -8
-18 -16 -31 -18 -29 -2 3 4 49 13 103 16 95 19 101 65 151 61 68 83 132 76
222 -6 74 -24 141 -37 141 -4 0 -29 -24 -56 -52z"/>
<path d="M5863 4833 c9 -2 23 -2 30 0 6 3 -1 5 -18 5 -16 0 -22 -2 -12 -5z"/>
<path d="M5923 4435 c0 -22 2 -30 4 -17 2 12 2 30 0 40 -3 9 -5 -1 -4 -23z"/>
<path d="M5922 4365 c0 -16 2 -22 5 -12 2 9 2 23 0 30 -3 6 -5 -1 -5 -18z"/>
<path d="M5920 4304 c0 -16 5 -36 10 -44 6 -10 7 -2 3 25 -7 49 -13 58 -13 19z"/>
<path d="M5465 4255 c6 -2 62 -5 125 -8 63 -2 104 -1 90 4 -24 7 -236 11 -215
4z"/>
<path d="M5745 4225 c22 -8 51 -13 65 -13 14 0 0 6 -30 13 -69 18 -88 17 -35
0z"/>
<path d="M4672 3955 c-396 -36 -746 -101 -1003 -186 l-36 -11 24 -116 c13 -64
32 -170 44 -236 11 -66 21 -121 22 -122 1 -1 52 9 112 22 181 41 503 92 713
114 108 11 203 23 211 26 28 9 689 5 781 -6 440 -50 718 -95 875 -140 38 -11
77 -20 86 -20 12 0 19 25 33 113 10 61 29 168 42 236 19 98 21 127 11 133 -6
4 -55 22 -107 38 -160 51 -392 93 -780 141 -228 28 -792 35 -1028 14z m288
-165 c0 -31 -16 -41 -26 -15 -4 8 -17 15 -30 15 -23 0 -24 -2 -24 -85 0 -67 3
-87 15 -91 32 -13 12 -24 -42 -24 -50 1 -56 2 -40 14 14 11 17 29 17 100 0 84
-1 86 -24 86 -13 0 -26 -7 -30 -15 -3 -8 -10 -15 -16 -15 -11 0 -14 43 -3 53
3 4 51 7 105 7 l98 0 0 -30z m320 10 c34 -34 25 -65 -32 -121 l-53 -51 53 4
c48 3 52 1 52 -19 0 -22 -4 -23 -73 -23 -41 0 -77 3 -80 6 -3 4 18 34 48 67
56 62 67 94 40 117 -17 14 -55 4 -55 -16 0 -8 -7 -14 -16 -14 -11 0 -14 5 -10
16 3 9 6 20 6 25 0 13 38 28 73 28 15 1 36 -8 47 -19z m-572 -22 c2 -20 -1
-28 -12 -28 -9 0 -16 6 -16 14 0 20 -28 28 -51 15 -13 -6 -19 -18 -17 -32 2
-17 12 -23 47 -29 55 -9 74 -27 74 -68 0 -49 -32 -73 -101 -78 l-59 -4 -5 31
c-6 39 11 52 30 23 26 -40 102 -20 86 21 -6 17 -15 21 -71 32 -24 5 -34 14
-42 37 -14 41 -14 41 10 72 19 24 27 27 73 24 47 -3 51 -5 54 -30z m758 24
c19 -12 34 -49 34 -84 0 -112 -66 -170 -132 -118 -43 33 -47 146 -6 189 19 21
81 29 104 13z m196 -19 c33 -30 23 -68 -32 -115 -27 -24 -50 -46 -50 -50 0 -5
24 -8 54 -8 50 0 54 -2 49 -21 -6 -20 -11 -21 -80 -17 -40 3 -76 8 -80 12 -4
3 19 33 51 65 48 48 57 63 54 87 -2 23 -9 30 -31 32 -18 2 -29 -2 -33 -12 -9
-23 -35 -21 -27 2 3 9 10 23 16 30 14 18 87 15 109 -5z m-1149 -15 c8 -29 5
-31 -27 -14 -42 21 -66 10 -66 -30 0 -28 4 -34 22 -34 12 0 30 7 40 17 17 15
18 15 18 -5 0 -11 3 -27 6 -36 4 -11 1 -16 -10 -16 -9 0 -16 5 -16 10 0 6 -11
10 -25 10 -23 0 -25 -4 -25 -45 0 -25 4 -45 9 -45 34 0 71 15 76 31 4 11 11
19 16 19 11 0 12 -57 2 -63 -5 -3 -46 -8 -92 -12 -74 -6 -83 -5 -73 8 9 11 10
36 4 98 -5 46 -11 91 -13 99 -4 15 36 26 112 29 30 1 38 -3 42 -21z m1357 2
c0 -5 -8 -10 -19 -10 -22 0 -71 -37 -71 -54 0 -8 10 -11 29 -8 44 6 75 -29 67
-77 -7 -49 -40 -75 -86 -67 -46 7 -70 38 -70 90 0 53 17 85 59 113 34 23 91
31 91 13z m-842 -158 c-4 -22 -46 -28 -54 -8 -4 9 -1 23 6 31 16 19 53 1 48
-23z"/>
<path d="M5395 3780 c-3 -5 -9 -40 -12 -77 -4 -51 -1 -73 10 -88 15 -19 16
-19 36 -1 17 16 21 31 21 86 0 64 -10 90 -36 90 -7 0 -16 -4 -19 -10z"/>
<path d="M5777 3663 c-13 -13 -7 -71 9 -84 28 -23 55 31 38 75 -6 16 -35 22
-47 9z"/>
<path d="M6602 3522 c-5 -26 -20 -100 -33 -164 l-23 -117 -135 -47 c-75 -26
-147 -51 -161 -57 l-25 -9 25 -10 c47 -19 224 -68 320 -89 154 -33 304 -49
462 -49 l149 0 -83 98 c-46 53 -98 116 -116 138 l-32 42 47 36 c62 48 233 206
233 214 0 4 -75 6 -167 6 -161 -2 -307 14 -416 44 l-36 10 -9 -46z"/>
<path d="M3460 3534 c-94 -17 -166 -22 -290 -23 l-165 -1 70 -68 c39 -37 101
-95 139 -129 l70 -61 -90 -107 c-49 -59 -100 -121 -113 -138 l-25 -30 190 6
c104 3 230 13 279 21 106 18 399 90 446 109 l33 13 -94 33 c-181 62 -212 75
-219 96 -4 11 -21 84 -36 163 -26 129 -31 142 -49 141 -12 -1 -77 -12 -146
-25z"/>
<path d="M4906 3362 c61 -31 134 -68 162 -81 l52 -24 150 74 c82 40 150 77
150 81 0 5 -41 8 -90 8 -81 0 -97 -3 -150 -30 l-60 -30 -66 30 c-60 27 -77 30
-163 30 l-96 -1 111 -57z"/>
<path d="M3881 3278 l-125 -31 135 -48 c73 -27 139 -49 145 -49 7 0 8 19 3 58
-4 31 -8 67 -8 80 -1 27 1 27 -150 -10z"/>
<path d="M6196 3268 c-3 -24 -7 -60 -9 -81 -4 -43 -22 -45 166 16 l128 42
-128 32 c-70 18 -133 33 -140 33 -6 0 -14 -19 -17 -42z"/>
<path d="M2390 2602 c0 -6 7 -12 15 -16 12 -4 15 -28 15 -126 0 -98 -3 -122
-15 -126 -39 -15 -5 -24 95 -24 l110 0 0 40 c0 42 -16 56 -22 18 -3 -20 -10
-23 -55 -26 l-53 -3 0 125 c0 107 2 126 16 126 8 0 13 4 10 8 -7 12 -116 15
-116 4z"/>
<path d="M2650 2601 c0 -5 7 -11 15 -15 12 -4 15 -28 15 -126 0 -98 -3 -122
-15 -126 -39 -15 -6 -24 89 -24 99 0 104 1 110 23 3 12 6 28 6 35 0 19 -18 14
-25 -8 -5 -17 -15 -20 -61 -20 l-54 0 0 55 0 55 36 0 c23 0 42 -6 50 -17 12
-16 13 -12 13 32 0 44 -1 48 -13 33 -8 -12 -27 -18 -50 -18 l-36 0 0 50 0 50
49 0 c41 0 50 -3 54 -21 8 -29 23 -17 22 18 l-2 28 -101 3 c-58 1 -102 -1
-102 -7z"/>
<path d="M3015 2563 c-10 -27 -31 -75 -46 -109 -15 -33 -33 -72 -38 -87 -6
-15 -17 -27 -26 -27 -8 0 -15 -7 -15 -15 0 -10 10 -15 33 -14 36 0 85 17 55
18 -20 1 -24 31 -8 62 9 15 22 19 64 19 51 0 54 -2 67 -31 11 -28 10 -33 -6
-45 -17 -12 -10 -14 51 -13 54 0 64 3 48 11 -14 7 -37 51 -74 144 -60 153 -75
166 -105 87z m45 -79 c11 -25 20 -48 20 -50 0 -2 -21 -4 -46 -4 -33 0 -45 4
-41 13 2 6 10 29 18 50 7 20 17 37 21 37 5 0 18 -21 28 -46z"/>
<path d="M3230 2601 c0 -6 7 -11 15 -11 13 0 15 -21 15 -125 0 -108 -2 -125
-17 -134 -14 -8 -2 -10 47 -10 56 0 62 2 41 12 -23 11 -23 14 -17 92 3 44 6
97 6 118 0 34 2 37 28 37 67 0 80 -83 16 -105 l-29 -10 50 -75 c50 -75 71 -88
115 -74 12 4 11 8 -6 22 -11 9 -37 40 -56 68 l-36 52 29 21 c22 16 29 30 29
55 0 56 -27 70 -136 74 -64 3 -94 0 -94 -7z"/>
<path d="M3525 2601 c-3 -5 4 -12 15 -16 19 -6 20 -15 20 -125 0 -113 -1 -118
-22 -124 -40 -10 -6 -27 41 -20 34 5 39 9 26 18 -13 9 -15 29 -13 105 l3 93
89 -111 c121 -152 126 -151 126 29 0 118 2 140 15 140 8 0 15 3 15 8 0 4 -20
7 -45 7 -45 0 -58 -8 -30 -19 12 -4 15 -25 15 -98 l-1 -93 -49 55 c-27 30 -66
79 -87 108 -33 47 -40 52 -74 52 -21 0 -40 -4 -44 -9z"/>
<path d="M4300 2599 c0 -4 7 -9 15 -13 12 -4 15 -28 15 -125 0 -103 -2 -120
-17 -125 -36 -14 12 -26 105 -26 81 0 92 2 92 18 0 9 3 27 6 40 8 30 -10 28
-24 -3 -10 -22 -18 -25 -62 -25 l-50 0 0 120 c0 98 3 122 15 126 30 12 14 19
-40 19 -30 0 -55 -3 -55 -6z"/>
<path d="M4550 2599 c0 -5 7 -9 15 -9 13 0 15 -21 15 -130 0 -109 -2 -130 -15
-130 -8 0 -15 -4 -15 -10 0 -6 42 -10 105 -10 115 0 120 3 113 57 l-4 28 -12
-27 c-10 -25 -16 -28 -62 -28 l-50 0 0 55 0 55 40 0 c29 0 40 -4 40 -15 0 -8
5 -15 10 -15 6 0 10 20 10 45 0 25 -4 45 -10 45 -5 0 -10 -7 -10 -15 0 -11
-11 -15 -40 -15 l-40 0 0 50 0 50 50 0 c43 0 50 -3 50 -20 0 -11 5 -20 10 -20
6 0 10 16 10 35 l0 35 -105 -1 c-58 -1 -105 -6 -105 -10z"/>
<path d="M4930 2598 c0 -27 -101 -244 -121 -258 -27 -21 -15 -30 38 -30 46 0
53 6 26 25 -14 11 -15 16 -4 43 12 28 15 30 68 28 52 -1 55 -3 69 -34 13 -32
12 -34 -6 -39 -39 -10 -11 -18 51 -15 61 4 62 5 42 20 -12 10 -43 71 -71 142
-40 100 -54 126 -71 128 -12 2 -21 -2 -21 -10z m24 -91 c32 -77 31 -77 -13
-77 -26 0 -41 5 -41 12 0 14 31 98 36 98 2 0 10 -15 18 -33z"/>
<path d="M5130 2602 c0 -5 7 -12 15 -16 12 -4 15 -28 15 -125 0 -69 -4 -122
-10 -126 -41 -25 80 -35 166 -14 85 22 132 114 102 203 -20 62 -60 80 -185 84
-65 3 -103 1 -103 -6z m189 -36 c33 -18 51 -54 51 -106 0 -79 -41 -120 -120
-120 l-40 0 0 113 c0 63 3 117 7 120 11 12 73 7 102 -7z"/>
<path d="M5941 2596 c-28 -15 -39 -38 -40 -78 -1 -37 29 -65 85 -79 53 -14 73
-43 55 -78 -23 -42 -106 -36 -118 9 -9 32 -23 23 -23 -15 0 -31 3 -35 36 -41
81 -15 145 18 158 82 10 44 -19 75 -86 94 -45 14 -53 20 -56 42 -5 38 38 66
74 49 14 -6 28 -20 31 -31 8 -32 23 -23 23 14 0 26 -5 35 -22 40 -38 10 -92 6
-117 -8z"/>
<path d="M6130 2600 c0 -4 7 -10 15 -14 12 -4 15 -26 15 -110 0 -96 2 -107 23
-132 20 -23 34 -28 84 -32 56 -4 63 -2 94 26 l34 30 3 107 c3 80 7 108 18 112
27 10 14 18 -31 18 -46 0 -58 -8 -29 -19 13 -5 15 -22 12 -107 -3 -92 -5 -103
-27 -120 -13 -10 -36 -19 -51 -19 -15 0 -38 9 -51 19 -22 17 -24 28 -27 120
-3 85 -1 102 12 107 30 12 16 19 -39 21 -30 0 -55 -2 -55 -7z"/>
<path d="M6541 2592 c-55 -27 -76 -64 -76 -131 1 -38 7 -67 19 -85 35 -54 140
-81 215 -55 30 11 39 39 10 30 -40 -13 -99 -11 -126 3 -74 38 -83 179 -14 216
44 23 131 6 131 -25 0 -27 18 -15 22 14 3 24 0 32 -19 40 -37 17 -124 13 -162
-7z"/>
<path d="M6850 2599 c-69 -29 -100 -98 -80 -181 17 -68 61 -101 144 -106 69
-4 116 10 116 34 0 11 -5 14 -17 9 -87 -35 -145 -19 -177 50 -32 66 -9 142 50
170 42 20 95 9 109 -23 5 -12 13 -22 16 -22 7 0 19 63 13 69 -9 10 -151 10
-174 0z"/>
<path d="M7070 2601 c0 -5 7 -11 15 -15 12 -4 15 -28 15 -126 0 -98 -3 -122
-15 -126 -39 -15 -6 -24 89 -24 l104 0 4 36 c5 43 -8 55 -22 20 -8 -23 -15
-26 -60 -26 l-51 0 3 58 3 57 34 -3 c19 -1 40 -10 47 -20 12 -15 13 -10 13 33
0 44 -1 48 -13 33 -8 -12 -27 -18 -50 -18 l-36 0 0 50 0 50 49 0 c42 0 49 -3
55 -22 7 -30 29 -10 24 23 -3 23 -6 24 -105 27 -59 1 -103 -1 -103 -7z"/>
<path d="M7320 2602 c0 -5 7 -12 15 -16 12 -4 15 -28 15 -125 0 -104 -2 -121
-17 -130 -30 -16 3 -22 108 -19 l94 3 3 33 c4 35 -13 44 -23 12 -5 -16 -15
-20 -56 -20 l-49 0 0 55 0 55 35 0 c22 0 38 -6 41 -15 12 -30 24 -14 24 30 0
44 -12 60 -24 30 -3 -9 -19 -15 -41 -15 l-35 0 0 50 0 50 50 0 c43 0 50 -3 50
-20 0 -11 5 -20 10 -20 6 0 10 15 10 33 l0 32 -105 3 c-64 2 -105 0 -105 -6z"/>
<path d="M7574 2599 c-2 -4 5 -9 16 -12 19 -5 20 -14 20 -125 0 -102 -2 -121
-16 -126 -36 -14 2 -21 89 -17 54 2 104 9 120 18 44 22 67 69 67 137 0 53 -3
61 -34 92 -21 21 -45 35 -62 36 -74 4 -196 2 -200 -3z m211 -49 c47 -44 41
-148 -12 -190 -17 -13 -41 -20 -69 -20 l-44 0 0 121 0 122 50 -5 c34 -4 59
-13 75 -28z"/>
<path d="M4032 2498 c-7 -7 -12 -24 -12 -38 0 -34 17 -50 52 -50 27 0 48 23
48 54 0 37 -61 61 -88 34z"/>
<path d="M5626 2494 c-21 -21 -20 -47 2 -67 37 -34 82 -15 82 33 0 14 -5 31
-12 38 -17 17 -54 15 -72 -4z"/>
</g>
</svg>
